<?xml version="1.0" encoding="UTF-8" standalone="no"?>
<svg height="16px" viewBox="0 0 16 16" width="16px" xmlns="http://www.w3.org/2000/svg" xmlns:xlink="http://www.w3.org/1999/xlink">
  <filter id="a" height="100%" width="100%" x="0%" y="0%">
    <feColorMatrix in="SourceGraphic" type="matrix" values="0 0 0 0 1 0 0 0 0 1 0 0 0 0 1 0 0 0 1 0" id="feColorMatrix2" />
  </filter>
  <mask id="b">
    <g filter="url(#a)" id="g7">
      <path d="m 0 0 h 16 v 16 h -16 z" fill-opacity="0.3" id="path5" />
    </g>
  </mask>
  <clipPath id="c">
    <path d="m 0 0 h 1024 v 800 h -1024 z" id="path10" />
  </clipPath>
  <mask id="d">
    <g filter="url(#a)" id="g15">
      <path d="m 0 0 h 16 v 16 h -16 z" fill-opacity="0.05" id="path13" />
    </g>
  </mask>
  <clipPath id="e">
    <path d="m 0 0 h 1024 v 800 h -1024 z" id="path18" />
  </clipPath>
  <mask id="f">
    <g filter="url(#a)" id="g23">
      <path d="m 0 0 h 16 v 16 h -16 z" fill-opacity="0.05" id="path21" />
    </g>
  </mask>
  <clipPath id="g">
    <path d="m 0 0 h 1024 v 800 h -1024 z" id="path26" />
  </clipPath>
  <mask id="h">
    <g filter="url(#a)" id="g31">
      <path d="m 0 0 h 16 v 16 h -16 z" fill-opacity="0.05" id="path29" />
    </g>
  </mask>
  <clipPath id="i">
    <path d="m 0 0 h 1024 v 800 h -1024 z" id="path34" />
  </clipPath>
  <mask id="j">
    <g filter="url(#a)" id="g39">
      <path d="m 0 0 h 16 v 16 h -16 z" fill-opacity="0.05" id="path37" />
    </g>
  </mask>
  <clipPath id="k">
    <path d="m 0 0 h 1024 v 800 h -1024 z" id="path42" />
  </clipPath>
  <mask id="l">
    <g filter="url(#a)" id="g47">
      <path d="m 0 0 h 16 v 16 h -16 z" fill-opacity="0.05" id="path45" />
    </g>
  </mask>
  <clipPath id="m">
    <path d="m 0 0 h 1024 v 800 h -1024 z" id="path50" />
  </clipPath>
  <mask id="n">
    <g filter="url(#a)" id="g55">
      <path d="m 0 0 h 16 v 16 h -16 z" fill-opacity="0.05" id="path53" />
    </g>
  </mask>
  <clipPath id="o">
    <path d="m 0 0 h 1024 v 800 h -1024 z" id="path58" />
  </clipPath>
  <mask id="p">
    <g filter="url(#a)" id="g63">
      <path d="m 0 0 h 16 v 16 h -16 z" fill-opacity="0.3" id="path61" />
    </g>
  </mask>
  <clipPath id="q">
    <path d="m 0 0 h 1024 v 800 h -1024 z" id="path66" />
  </clipPath>
  <mask id="r">
    <g filter="url(#a)" id="g71">
      <path d="m 0 0 h 16 v 16 h -16 z" fill-opacity="0.5" id="path69" />
    </g>
  </mask>
  <clipPath id="s">
    <path d="m 0 0 h 1024 v 800 h -1024 z" id="path74" />
  </clipPath>
  <mask id="t">
    <g filter="url(#a)" id="g79">
      <path d="m 0 0 h 16 v 16 h -16 z" fill-opacity="0.4" id="path77" />
    </g>
  </mask>
  <clipPath id="u">
    <path d="m 0 0 h 1024 v 800 h -1024 z" id="path82" />
  </clipPath>
  <mask id="v">
    <g filter="url(#a)" id="g87">
      <path d="m 0 0 h 16 v 16 h -16 z" fill-opacity="0.4" id="path85" />
    </g>
  </mask>
  <clipPath id="w">
    <path d="m 0 0 h 1024 v 800 h -1024 z" id="path90" />
  </clipPath>
  <mask id="x">
    <g filter="url(#a)" id="g95">
      <path d="m 0 0 h 16 v 16 h -16 z" fill-opacity="0.5" id="path93" />
    </g>
  </mask>
  <clipPath id="y">
    <path d="m 0 0 h 1024 v 800 h -1024 z" id="path98" />
  </clipPath>
  <mask id="z">
    <g filter="url(#a)" id="g103">
      <path d="m 0 0 h 16 v 16 h -16 z" fill-opacity="0.5" id="path101" />
    </g>
  </mask>
  <clipPath id="A">
    <path d="m 0 0 h 1024 v 800 h -1024 z" id="path106" />
  </clipPath>
  <path d="m 2 3 v 11 h 11 v -4 h -2 v 2 h -7 v -7 h 2 v -2 z m 0 0" fill="#2e3436" id="path109" />
  <path id="path111" style="color:#000000;font-style:normal;font-variant:normal;font-weight:normal;font-stretch:normal;font-size:medium;line-height:normal;font-family:sans-serif;font-variant-ligatures:normal;font-variant-position:normal;font-variant-caps:normal;font-variant-numeric:normal;font-variant-alternates:normal;font-variant-east-asian:normal;font-feature-settings:normal;font-variation-settings:normal;text-indent:0;text-align:start;text-decoration:none;text-decoration-line:none;text-decoration-style:solid;text-decoration-color:#000000;letter-spacing:normal;word-spacing:normal;text-transform:none;writing-mode:lr-tb;direction:ltr;text-orientation:mixed;dominant-baseline:auto;baseline-shift:baseline;text-anchor:start;white-space:normal;shape-padding:0;shape-margin:0;inline-size:0;clip-rule:nonzero;display:inline;overflow:visible;visibility:visible;isolation:auto;mix-blend-mode:normal;color-interpolation:sRGB;color-interpolation-filters:linearRGB;solid-color:#000000;solid-opacity:1;vector-effect:none;fill:#2e3436;fill-opacity:0.80000001;fill-rule:nonzero;stroke:none;stroke-linecap:round;stroke-linejoin:round;stroke-miterlimit:4;stroke-dasharray:none;stroke-dashoffset:0;stroke-opacity:1;color-rendering:auto;image-rendering:auto;shape-rendering:auto;text-rendering:auto;enable-background:accumulate;stop-color:#000000;stop-opacity:1;opacity:1" d="M 8 2 L 8 3 A 1 1 0 0 0 9 4 L 10.574219 4 L 7.7949219 6.7597656 A 1 1 0 0 0 7.7910156 8.1738281 A 1 1 0 0 0 9.2050781 8.1777344 L 12 5.4023438 L 12 7 A 1 1 0 0 0 13 8 L 14 8 L 14 7 L 14 3.03125 A 1 1 0 0 0 14 3 L 14 2 L 13.03125 2 A 1 1 0 0 0 13 2 L 9 2 L 8 2 z " /> <g clip-path="url(#c)" mask="url(#b)" transform="matrix(1 0 0 1 -720 -624)" id="g123">
    <path d="m 562.460938 212.058594 h 10.449218 c -1.183594 0.492187 -1.296875 2.460937 0 3 h -10.449218 z m 0 0" fill="#2e3436" id="path121" />
  </g>
  <g clip-path="url(#e)" mask="url(#d)" transform="matrix(1 0 0 1 -720 -624)" id="g127">
    <path d="m 16 632 h 1 v 1 h -1 z m 0 0" fill="#2e3436" fill-rule="evenodd" id="path125" />
  </g>
  <g clip-path="url(#g)" mask="url(#f)" transform="matrix(1 0 0 1 -720 -624)" id="g131">
    <path d="m 17 631 h 1 v 1 h -1 z m 0 0" fill="#2e3436" fill-rule="evenodd" id="path129" />
  </g>
  <g clip-path="url(#i)" mask="url(#h)" transform="matrix(1 0 0 1 -720 -624)" id="g135">
    <path d="m 18 634 h 1 v 1 h -1 z m 0 0" fill="#2e3436" fill-rule="evenodd" id="path133" />
  </g>
  <g clip-path="url(#k)" mask="url(#j)" transform="matrix(1 0 0 1 -720 -624)" id="g139">
    <path d="m 16 634 h 1 v 1 h -1 z m 0 0" fill="#2e3436" fill-rule="evenodd" id="path137" />
  </g>
  <g clip-path="url(#m)" mask="url(#l)" transform="matrix(1 0 0 1 -720 -624)" id="g143">
    <path d="m 17 635 h 1 v 1 h -1 z m 0 0" fill="#2e3436" fill-rule="evenodd" id="path141" />
  </g>
  <g clip-path="url(#o)" mask="url(#n)" transform="matrix(1 0 0 1 -720 -624)" id="g147">
    <path d="m 19 635 h 1 v 1 h -1 z m 0 0" fill="#2e3436" fill-rule="evenodd" id="path145" />
  </g>
  <g clip-path="url(#q)" mask="url(#p)" transform="matrix(1 0 0 1 -720 -624)" id="g151">
    <path d="m 136 660 v 7 h 7 v -7 z m 0 0" fill="#2e3436" id="path149" />
  </g>
  <g clip-path="url(#s)" mask="url(#r)" transform="matrix(1 0 0 1 -720 -624)" id="g155">
    <path d="m 199 642 h 3 v 12 h -3 z m 0 0" fill="#2e3436" id="path153" />
  </g>
  <g clip-path="url(#u)" mask="url(#t)" transform="matrix(1 0 0 1 -720 -624)" id="g159">
    <path d="m 209.5 144.160156 c 0.277344 0 0.5 0.222656 0.5 0.5 v 1 c 0 0.277344 -0.222656 0.5 -0.5 0.5 s -0.5 -0.222656 -0.5 -0.5 v -1 c 0 -0.277344 0.222656 -0.5 0.5 -0.5 z m 0 0" fill="#2e3436" id="path157" />
  </g>
  <g clip-path="url(#w)" mask="url(#v)" transform="matrix(1 0 0 1 -720 -624)"
     id="g163">
    <path d="m 206.5 144.160156 c 0.277344 0 0.5 0.222656 0.5 0.5 v 1 c 0 0.277344 -0.222656 0.5 -0.5 0.5 s -0.5 -0.222656 -0.5 -0.5 v -1 c 0 -0.277344 0.222656 -0.5 0.5 -0.5 z m 0 0" fill="#2e3436" id="path161" />
  </g>
  <g clip-path="url(#y)" mask="url(#x)" transform="matrix(1 0 0 1 -720 -624)" id="g167">
    <path d="m 229.5 143.160156 c -0.546875 0 -1 0.457032 -1 1 c 0 0.546875 0.453125 1 1 1 s 1 -0.453125 1 -1 c 0 -0.542968 -0.453125 -1 -1 -1 z m 0 0" fill="#2e3436" id="path165" />
  </g>
  <g clip-path="url(#A)" mask="url(#z)" transform="matrix(1 0 0 1 -720 -624)" id="g171">
    <path d="m 226.453125 143.160156 c -0.519531 0 -0.953125 0.433594 -0.953125 0.953125 v 0.09375 c 0 0.519531 0.433594 0.953125 0.953125 0.953125 h 0.09375 c 0.519531 0 0.953125 -0.433594 0.953125 -0.953125 v -0.09375 c 0 -0.519531 -0.433594 -0.953125 -0.953125 -0.953125 z m 0 0" fill="#2e3436" id="path169" />
  </g>
</svg>
