<?xml version="1.0" encoding="UTF-8" standalone="no"?>
<svg
   id="svg6"
   version="1.1"
   width="16"
   height="16"
   xmlns="http://www.w3.org/2000/svg"
   xmlns:svg="http://www.w3.org/2000/svg"
   xmlns:rdf="http://www.w3.org/1999/02/22-rdf-syntax-ns#"
   xmlns:cc="http://creativecommons.org/ns#"
   xmlns:dc="http://purl.org/dc/elements/1.1/">
  <metadata
     id="metadata12">
    <rdf:RDF>
      <cc:Work
         rdf:about="">
        <dc:format>image/svg+xml</dc:format>
        <dc:type
           rdf:resource="http://purl.org/dc/dcmitype/StillImage" />
      </cc:Work>
    </rdf:RDF>
  </metadata>
  <defs
     id="defs10" />
  <path
     id="path825"
     style="fill:#555761;stroke-width:4;stroke-linecap:round;stroke-linejoin:round;stop-color:#000000"
     d="M 1.5,10 C 1.223,10 1,10.223 1,10.5 v 3 C 1,13.777 1.223,14 1.5,14 h 3 C 4.777,14 5,13.777 5,13.5 v -3 C 5,10.223 4.777,10 4.5,10 Z m 5,-2 C 6.223,8 6,8.223 6,8.5 v 5 C 6,13.777 6.223,14 6.5,14 h 3 C 9.777,14 10,13.777 10,13.5 v -5 C 10,8.223 9.777,8 9.5,8 Z m 5,2 C 11.223,10 11,10.223 11,10.5 v 3 c 0,0.277 0.223,0.5 0.5,0.5 h 3 c 0.277,0 0.5,-0.223 0.5,-0.5 v -3 C 15,10.223 14.777,10 14.5,10 Z" />
</svg>
