<?xml version="1.0" encoding="UTF-8"?>
<svg height="16px" viewBox="0 0 16 16" width="16px" xmlns="http://www.w3.org/2000/svg">
    <path d="m 7.28125 15.980469 c -1.886719 -0.183594 -3.578125 -0.972657 -4.90625 -2.300781 c -0.601562 -0.59375 -0.941406 -1.039063 -1.34375 -1.734376 c -0.9609375 -1.675781 -1.269531 -3.765624 -0.84375 -5.699218 c 0.664062 -2.988282 3.058594 -5.382813 6.054688 -6.050782 c 1.125 -0.2499995 2.375 -0.2499995 3.503906 0 c 0.90625 0.203126 1.816406 0.578126 2.566406 1.066407 c 0.972656 0.632812 1.859375 1.527343 2.484375 2.511719 c 0.199219 0.308593 0.578125 1.09375 0.722656 1.484374 c 0.339844 0.914063 0.515625 2.035157 0.476563 3.023438 c -0.046875 1.1875 -0.3125 2.230469 -0.835938 3.285156 c -0.402344 0.804688 -0.839844 1.414063 -1.476562 2.0625 c -1.234375 1.246094 -2.773438 2.03125 -4.515625 2.292969 c -0.472657 0.070313 -1.445313 0.101563 -1.886719 0.058594 z m 1.511719 -1.253907 c 1.222656 -0.132812 2.492187 -0.671874 3.480469 -1.472656 c 1.34375 -1.089844 2.234374 -2.710937 2.449218 -4.457031 c 0.046875 -0.359375 0.046875 -1.246094 0 -1.582031 c -0.175781 -1.335938 -0.691406 -2.546875 -1.507812 -3.519532 c -1.320313 -1.578124 -3.183594 -2.457031 -5.222656 -2.457031 c -2.300782 0 -4.40625 1.152344 -5.695313 3.117188 c -0.242187 0.371093 -0.566406 1.046875 -0.714844 1.496093 c -0.46875 1.402344 -0.46875 2.875 -0.003906 4.285157 c 0.660156 2.003906 2.242187 3.597656 4.246094 4.277343 c 0.949219 0.320313 1.929687 0.425782 2.96875 0.3125 z m -1.390625 -1.191406 c -0.621094 -0.066406 -1.320313 -0.273437 -1.898438 -0.5625 c -2.011718 -1.011718 -3.203125 -3.113281 -3.046875 -5.367187 c 0.164063 -2.320313 1.761719 -4.296875 4 -4.941407 c 0.925781 -0.265624 1.992188 -0.28125 2.917969 -0.046874 c 2.023438 0.515624 3.589844 2.128906 4.046875 4.171874 c 0.378906 1.6875 -0.050781 3.453126 -1.160156 4.785157 c -1.179688 1.414062 -3.011719 2.152343 -4.859375 1.960937 z m -1.121094 -2.25 c 0.515625 -0.160156 0.964844 -0.636718 1.085938 -1.15625 c 0.019531 -0.089844 0.03125 -0.828125 0.03125 -1.964844 v -1.824218 h 2.722656 v 1.949218 l -0.070313 -0.023437 c -0.535156 -0.164063 -0.921875 -0.140625 -1.34375 0.085937 c -0.53125 0.28125 -0.839843 0.792969 -0.839843 1.402344 c 0 0.578125 0.273437 1.0625 0.769531 1.375 c 0.484375 0.300782 1.179687 0.296875 1.671875 -0.015625 c 0.207031 -0.128906 0.441406 -0.382812 0.554687 -0.597656 c 0.203125 -0.378906 0.199219 -0.300781 0.199219 -3.054687 v -2.496094 h -4.570312 v 3.339844 l -0.179688 -0.0625 c -0.5625 -0.195313 -1.210938 -0.039063 -1.644531 0.398437 c -0.828125 0.839844 -0.488281 2.25 0.632812 2.636719 c 0.273438 0.09375 0.695313 0.097656 0.976563 0.007812 z m 0 0" fill="#241f31"/>
</svg>
