<?xml version="1.0" encoding="UTF-8"?>
<svg height="128px" viewBox="0 0 128 128" width="128px" xmlns="http://www.w3.org/2000/svg">
    <path d="m 123.503906 65.945312 c 0 32.863282 -26.640625 59.503907 -59.503906 59.503907 s -59.503906 -26.640625 -59.503906 -59.503907 c 0 -32.863281 26.640625 -59.503906 59.503906 -59.503906 s 59.503906 26.640625 59.503906 59.503906 z m 0 0" fill="#d5d3cf"/>
    <path d="m 123.503906 63.960938 c 0 32.863281 -26.640625 59.507812 -59.503906 59.507812 s -59.503906 -26.644531 -59.503906 -59.507812 c 0 -32.863282 26.640625 -59.503907 59.503906 -59.503907 s 59.503906 26.640625 59.503906 59.503907 z m 0 0" fill="#f6f5f4"/>
    <path d="m 118 64.953125 c 0 29.824219 -24.175781 54 -54 54 s -54 -24.175781 -54 -54 c 0 -29.820313 24.175781 -54 54 -54 s 54 24.179687 54 54 z m 0 0" fill="#424048"/>
    <g fill="#f4eb69">
        <path d="m 110.179688 64.953125 c 0 25.503906 -20.675782 46.179687 -46.179688 46.179687 s -46.179688 -20.675781 -46.179688 -46.179687 s 20.675782 -46.175781 46.179688 -46.175781 s 46.179688 20.671875 46.179688 46.175781 z m 0 0" fill-opacity="0.304735"/>
        <path d="m 104.789062 62.457031 c 0 22.53125 -18.261718 40.792969 -40.789062 40.792969 s -40.789062 -18.261719 -40.789062 -40.792969 c 0 -22.527343 18.261718 -40.789062 40.789062 -40.789062 s 40.789062 18.261719 40.789062 40.789062 z m 0 0" fill-opacity="0.343279"/>
        <path d="m 99.023438 59.960938 c 0 19.34375 -15.679688 35.023437 -35.023438 35.023437 s -35.023438 -15.679687 -35.023438 -35.023437 c 0 -19.339844 15.679688 -35.019532 35.023438 -35.019532 s 35.023438 15.679688 35.023438 35.019532 z m 0 0" fill-opacity="0.536192"/>
        <path d="m 92.769531 57.464844 c 0 15.890625 -12.882812 28.769531 -28.769531 28.769531 s -28.769531 -12.878906 -28.769531 -28.769531 c 0 -15.886719 12.882812 -28.765625 28.769531 -28.765625 s 28.769531 12.878906 28.769531 28.765625 z m 0 0"/>
    </g>
    <path d="m 54.296875 32.992188 v 23.753906 c -1.464844 -0.683594 -3.136719 -1.113282 -4.851563 -1.113282 c -6.214843 0 -11.324218 5.105469 -11.324218 11.320313 s 5.109375 11.324219 11.324218 11.324219 c 6.179688 0 11.261719 -5.054688 11.320313 -11.222656 c 0 -0.035157 0 -0.066407 0 -0.101563 v -24.257813 h 19.40625 v 14.050782 c -1.460937 -0.683594 -3.136719 -1.113282 -4.851563 -1.113282 c -6.214843 0 -11.320312 5.109376 -11.320312 11.320313 c 0 6.214844 5.105469 11.324219 11.320312 11.324219 c 6.144532 0 11.207032 -5 11.320313 -11.121094 c 0.003906 -0.070312 0 -0.132812 0 -0.203125 v -33.960937 z m 0 0" fill="#1a7049"/>
    <path d="m 54.296875 30.496094 v 23.753906 c -1.464844 -0.683594 -3.136719 -1.113281 -4.851563 -1.113281 c -6.214843 0 -11.324218 5.109375 -11.324218 11.320312 c 0 6.214844 5.109375 11.324219 11.324218 11.324219 c 6.179688 0 11.261719 -5.054688 11.320313 -11.222656 c 0 -0.035156 0 -0.066406 0 -0.101563 v -24.257812 h 19.40625 v 14.050781 c -1.460937 -0.683594 -3.136719 -1.113281 -4.851563 -1.113281 c -6.214843 0 -11.320312 5.109375 -11.320312 11.320312 c 0 6.214844 5.105469 11.324219 11.320312 11.324219 c 6.144532 0 11.207032 -5 11.320313 -11.121094 c 0.003906 -0.070312 0 -0.132812 0 -0.203125 v -33.960937 z m 0 0" fill="#26a269"/>
</svg>
