<?xml version="1.0" encoding="UTF-8"?>
<svg height="128px" viewBox="0 0 128 128" width="128px" xmlns="http://www.w3.org/2000/svg" xmlns:xlink="http://www.w3.org/1999/xlink">
    <filter id="a" height="100%" width="100%" x="0%" y="0%">
        <feColorMatrix in="SourceGraphic" type="matrix" values="0 0 0 0 1 0 0 0 0 1 0 0 0 0 1 0 0 0 1 0"/>
    </filter>
    <mask id="b">
        <g filter="url(#a)">
            <rect fill-opacity="0.1" height="128" width="128"/>
        </g>
    </mask>
    <clipPath id="c">
        <rect height="152" width="192"/>
    </clipPath>
    <linearGradient id="d" gradientUnits="userSpaceOnUse" x1="32.887211" x2="107.700355" y1="82.007324" y2="35.501801">
        <stop offset="0" stop-color="#6b97df"/>
        <stop offset="1" stop-color="#c25298"/>
    </linearGradient>
    <linearGradient id="e" gradientUnits="userSpaceOnUse" x1="37.05564" x2="108.144015" y1="64.45578" y2="95.271119">
        <stop offset="0" stop-color="#6b97df" stop-opacity="0"/>
        <stop offset="1" stop-color="#e5565c"/>
    </linearGradient>
    <mask id="f">
        <g filter="url(#a)">
            <rect fill-opacity="0.12" height="128" width="128"/>
        </g>
    </mask>
    <clipPath id="g">
        <rect height="152" width="192"/>
    </clipPath>
    <path d="m 123.503906 65.945312 c 0 32.863282 -26.640625 59.503907 -59.503906 59.503907 s -59.503906 -26.640625 -59.503906 -59.503907 c 0 -32.863281 26.640625 -59.503906 59.503906 -59.503906 s 59.503906 26.640625 59.503906 59.503906 z m 0 0" fill="#d5d3cf"/>
    <path d="m 123.503906 63.960938 c 0 32.863281 -26.640625 59.507812 -59.503906 59.507812 s -59.503906 -26.644531 -59.503906 -59.507812 c 0 -32.863282 26.640625 -59.503907 59.503906 -59.503907 s 59.503906 26.640625 59.503906 59.503907 z m 0 0" fill="#f6f5f4"/>
    <g clip-path="url(#c)" mask="url(#b)" transform="matrix(1 0 0 1 -8 -16)">
        <path d="m 72 26.953125 c -29.824219 0 -54 24.179687 -54 54 c 0.007812 0.390625 0.023438 0.78125 0.042969 1.171875 c 0.453125 -29.484375 24.46875 -53.152344 53.957031 -53.171875 c 29.355469 0.015625 53.320312 23.480469 53.957031 52.828125 c 0.015625 -0.273438 0.03125 -0.550781 0.042969 -0.828125 c 0 -29.820313 -24.175781 -54 -54 -54 z m 0 0"/>
    </g>
    <path d="m 118 63.960938 c 0 29.824218 -24.175781 54 -54 54 s -54 -24.175782 -54 -54 c 0 -29.820313 24.175781 -54 54 -54 s 54 24.179687 54 54 z m 0 0" fill="url(#d)"/>
    <path d="m 117.996094 64.175781 c 0 29.824219 -24.179688 54 -54 54 c -29.824219 0 -54 -24.175781 -54 -54 c 0 -29.820312 24.175781 -54 54 -54 c 29.820312 0 54 24.179688 54 54 z m 0 0" fill="url(#e)"/>
    <g clip-path="url(#g)" mask="url(#f)" transform="matrix(1 0 0 1 -8 -16)">
        <path d="m 72 25.960938 c -29.824219 0 -54 24.179687 -54 54 c 0.007812 0.390624 0.023438 0.78125 0.042969 1.171874 c 0.453125 -29.480468 24.46875 -53.152343 53.957031 -53.171874 c 29.355469 0.015624 53.320312 23.480468 53.957031 52.828124 c 0.015625 -0.273437 0.03125 -0.550781 0.042969 -0.828124 c 0 -29.820313 -24.175781 -54 -54 -54 z m 0 0"/>
    </g>
    <path d="m 49.988281 36.191406 v 27.292969 c -1.960937 -0.941406 -4.144531 -1.488281 -6.453125 -1.488281 c -8.300781 0.035156 -15.019531 6.753906 -15.054687 15.054687 c 0 8.261719 6.796875 15.054688 15.054687 15.054688 c 8.246094 0 15.011719 -6.753907 15.050782 -14.988281 h 0.003906 v -32.324219 h 25.804687 v 18.691406 c -1.960937 -0.941406 -4.144531 -1.488281 -6.453125 -1.488281 c -8.296875 0.035156 -15.019531 6.753906 -15.054687 15.054687 c 0 8.261719 6.796875 15.054688 15.054687 15.054688 c 8.175782 0 14.894532 -6.644531 15.042969 -14.785157 h 0.011719 v -41.128906 z m -6.453125 34.40625 c 3.617188 0 6.453125 2.839844 6.453125 6.453125 s -2.832031 6.453125 -6.453125 6.453125 c -3.613281 0 -6.453125 -2.839844 -6.453125 -6.453125 s 2.839844 -6.453125 6.453125 -6.453125 z m 34.40625 0 c 3.617188 0 6.453125 2.839844 6.453125 6.453125 s -2.835937 6.453125 -6.453125 6.453125 c -3.613281 0 -6.453125 -2.839844 -6.453125 -6.453125 s 2.839844 -6.453125 6.453125 -6.453125 z m 0 0" fill="#c0bfbc"/>
    <path d="m 49.988281 33.914062 v 27.292969 c -1.960937 -0.941406 -4.144531 -1.484375 -6.453125 -1.484375 c -8.300781 0.035156 -15.019531 6.753906 -15.054687 15.050782 c 0 8.261718 6.796875 15.054687 15.054687 15.054687 c 8.246094 0 15.011719 -6.753906 15.050782 -14.984375 h 0.003906 v -32.328125 h 25.804687 v 18.691406 c -1.960937 -0.941406 -4.144531 -1.484375 -6.453125 -1.484375 c -8.296875 0.035156 -15.019531 6.753906 -15.054687 15.050782 c 0 8.261718 6.796875 15.054687 15.054687 15.054687 c 8.175782 0 14.894532 -6.644531 15.042969 -14.78125 h 0.011719 v -41.132813 z m -6.453125 34.410157 c 3.617188 0 6.453125 2.835937 6.453125 6.449219 c 0 3.613281 -2.832031 6.453124 -6.453125 6.453124 c -3.613281 0 -6.453125 -2.839843 -6.453125 -6.453124 c 0 -3.613282 2.839844 -6.449219 6.453125 -6.449219 z m 34.40625 0 c 3.617188 0 6.453125 2.835937 6.453125 6.449219 c 0 3.613281 -2.835937 6.453124 -6.453125 6.453124 c -3.613281 0 -6.453125 -2.839843 -6.453125 -6.453124 c 0 -3.613282 2.839844 -6.449219 6.453125 -6.449219 z m 0 0" fill="#ffffff"/>
</svg>
