<?xml version="1.0" encoding="UTF-8"?>
<svg height="128px" viewBox="0 0 128 128" width="128px" xmlns="http://www.w3.org/2000/svg" xmlns:xlink="http://www.w3.org/1999/xlink">
    <filter id="a" height="100%" width="100%" x="0%" y="0%">
        <feColorMatrix in="SourceGraphic" type="matrix" values="0 0 0 0 1 0 0 0 0 1 0 0 0 0 1 0 0 0 1 0"/>
    </filter>
    <mask id="b">
        <g filter="url(#a)">
            <rect fill-opacity="0.1" height="128" width="128"/>
        </g>
    </mask>
    <clipPath id="c">
        <rect height="152" width="192"/>
    </clipPath>
    <linearGradient id="d" gradientUnits="userSpaceOnUse" x1="33.34982517544" x2="107.05064735044" y1="80.83781455815" y2="35.02373567411">
        <stop offset="0" stop-color="#6b97df"/>
        <stop offset="1" stop-color="#c25298"/>
    </linearGradient>
    <linearGradient id="e" gradientUnits="userSpaceOnUse" x1="37.45627787581" x2="107.48771091631" y1="63.54722849409" y2="93.90440503384">
        <stop offset="0" stop-color="#6b97df" stop-opacity="0"/>
        <stop offset="1" stop-color="#e5565c"/>
    </linearGradient>
    <mask id="f">
        <g filter="url(#a)">
            <rect fill-opacity="0.12" height="128" width="128"/>
        </g>
    </mask>
    <clipPath id="g">
        <rect height="152" width="192"/>
    </clipPath>
    <path d="m 122.621094 65.015625 c 0 32.375 -26.246094 58.621094 -58.621094 58.621094 s -58.621094 -26.246094 -58.621094 -58.621094 s 26.246094 -58.621094 58.621094 -58.621094 s 58.621094 26.246094 58.621094 58.621094 z m 0 0" fill="#d5d3cf"/>
    <path d="m 122.621094 63.0625 c 0 32.375 -26.246094 58.617188 -58.621094 58.617188 s -58.621094 -26.242188 -58.621094 -58.617188 s 26.246094 -58.621094 58.621094 -58.621094 s 58.621094 26.246094 58.621094 58.621094 z m 0 0" fill="#f6f5f4"/>
    <g clip-path="url(#c)" mask="url(#b)" transform="matrix(1 0 0 1 -8 -16)">
        <path d="m 72 26.839844 c -29.378906 0 -53.195312 23.820312 -53.195312 53.199218 c 0.007812 0.382813 0.019531 0.769532 0.039062 1.152344 c 0.445312 -29.042968 24.109375 -52.359375 53.15625 -52.378906 c 28.917969 0.015625 52.527344 23.128906 53.15625 52.042969 c 0.015625 -0.273438 0.03125 -0.546875 0.039062 -0.816407 c 0 -29.378906 -23.816406 -53.199218 -53.195312 -53.199218 z m 0 0"/>
    </g>
    <path d="m 117.195312 63.0625 c 0 29.378906 -23.816406 53.195312 -53.195312 53.195312 s -53.195312 -23.816406 -53.195312 -53.195312 c 0 -29.382812 23.816406 -53.199219 53.195312 -53.199219 s 53.195312 23.816407 53.195312 53.199219 z m 0 0" fill="url(#d)"/>
    <path d="m 117.191406 63.273438 c 0 29.378906 -23.816406 53.195312 -53.195312 53.195312 c -29.382813 0 -53.199219 -23.816406 -53.199219 -53.195312 c 0 -29.378907 23.816406 -53.199219 53.199219 -53.199219 c 29.378906 0 53.195312 23.820312 53.195312 53.199219 z m 0 0" fill="url(#e)"/>
    <g clip-path="url(#g)" mask="url(#f)" transform="matrix(1 0 0 1 -8 -16)">
        <path d="m 72 25.863281 c -29.378906 0 -53.195312 23.816407 -53.195312 53.199219 c 0.007812 0.382812 0.019531 0.769531 0.039062 1.152344 c 0.445312 -29.042969 24.109375 -52.363282 53.15625 -52.378906 c 28.917969 0.015624 52.527344 23.128906 53.15625 52.042968 c 0.015625 -0.273437 0.03125 -0.546875 0.039062 -0.816406 c 0 -29.382812 -23.816406 -53.199219 -53.195312 -53.199219 z m 0 0"/>
    </g>
    <path d="m 50.195312 35.703125 v 26.886719 c -1.933593 -0.929688 -4.082031 -1.464844 -6.355468 -1.464844 c -8.175782 0.035156 -14.796875 6.652344 -14.832032 14.828125 c 0 8.140625 6.695313 14.832031 14.832032 14.832031 c 8.125 0 14.789062 -6.65625 14.828125 -14.761718 v -31.847657 h 25.421875 v 18.414063 c -1.929688 -0.929688 -4.082032 -1.464844 -6.355469 -1.464844 c -8.175781 0.035156 -14.796875 6.652344 -14.828125 14.828125 c 0 8.140625 6.695312 14.832031 14.828125 14.832031 c 8.054687 0 14.671875 -6.546875 14.816406 -14.5625 h 0.015625 v -40.519531 z m -6.355468 33.894531 c 3.5625 0 6.355468 2.796875 6.355468 6.355469 s -2.789062 6.355469 -6.355468 6.355469 c -3.558594 0 -6.355469 -2.796875 -6.355469 -6.355469 s 2.796875 -6.355469 6.355469 -6.355469 z m 33.894531 0 c 3.5625 0 6.355469 2.796875 6.355469 6.355469 s -2.792969 6.355469 -6.355469 6.355469 c -3.558594 0 -6.355469 -2.796875 -6.355469 -6.355469 s 2.796875 -6.355469 6.355469 -6.355469 z m 0 0" fill="#c0bfbc"/>
    <path d="m 50.195312 33.460938 v 26.886718 c -1.933593 -0.925781 -4.082031 -1.464844 -6.355468 -1.464844 c -8.175782 0.035157 -14.796875 6.652344 -14.832032 14.828126 c 0 8.140624 6.695313 14.832031 14.832032 14.832031 c 8.125 0 14.789062 -6.65625 14.828125 -14.761719 v -31.847656 h 25.421875 v 18.414062 c -1.929688 -0.925781 -4.082032 -1.464844 -6.355469 -1.464844 c -8.175781 0.035157 -14.796875 6.652344 -14.828125 14.828126 c 0 8.140624 6.695312 14.832031 14.828125 14.832031 c 8.054687 0 14.671875 -6.546875 14.816406 -14.5625 h 0.015625 v -40.519531 z m -6.355468 33.894531 c 3.5625 0 6.355468 2.796875 6.355468 6.355469 c 0 3.5625 -2.789062 6.359374 -6.355468 6.359374 c -3.558594 0 -6.355469 -2.796874 -6.355469 -6.359374 c 0 -3.558594 2.796875 -6.355469 6.355469 -6.355469 z m 33.894531 0 c 3.5625 0 6.355469 2.796875 6.355469 6.355469 c 0 3.5625 -2.792969 6.359374 -6.355469 6.359374 c -3.558594 0 -6.355469 -2.796874 -6.355469 -6.359374 c 0 -3.558594 2.796875 -6.355469 6.355469 -6.355469 z m 0 0" fill="#ffffff"/>
</svg>
